<svg width="137" height="117" viewBox="0 0 137 117" fill="none" xmlns="http://www.w3.org/2000/svg">
<path d="M119.986 88.5578C131.1 72.4692 140.437 49.1314 134.653 29.4698C129.736 12.6789 117.239 2.76551 100.114 0.555645C64.2944 -4.07061 23.8065 20.8162 7.44605 51.9402C-0.300361 66.707 -4.28719 86.9469 7.05356 100.991C16.8244 113.073 34.1764 118.009 49.1528 115.654C65.1827 113.114 79.3121 102.767 87.513 88.8883C93.6482 78.4998 97.4491 58.8796 80.8614 56.2153C62.8484 53.3239 55.3912 75.691 62.1254 89.3013C68.9836 103.18 85.468 116.336 101.353 116.419C108.149 116.46 108.149 105.906 101.353 105.865C89.8059 105.803 75.6145 94.5678 71.2352 83.9728C69.5207 79.8423 69.2728 73.7497 72.0822 69.9495C77.8042 62.2047 83.3403 68.6071 82.2868 74.6171C81.068 81.5565 75.5938 88.6404 70.6361 93.4319C60.3282 103.387 45.3312 108.385 31.3257 104.295C12.8169 98.8843 7.11554 82.0522 13.292 64.7037C23.7445 35.3146 56.0109 14.3931 86.2116 11.3158C103.212 9.58099 119.263 14.042 124.531 32.2786C129.406 49.152 120.337 69.5984 110.917 83.25C107.055 88.847 116.185 94.1341 120.027 88.5785L119.986 88.5578Z" fill="black"/>
</svg>
